Coordinates
version=1
nRows=14
nColumns=33
inDegrees=yes

Units are S.I. units (second, meters, Newtons, ...)
Angles are in degrees.

endheader
time	ground_thorax_rot_x	ground_thorax_rot_y	ground_thorax_rot_z	ground_thorax_tx	ground_thorax_ty	ground_thorax_tz	clav_prot_r	clav_elev_r	scapula_abduction_r	scapula_elevation_r	scapula_upward_rot_r	scapula_winging_r	shoulder_elv_r	plane_of_elev_r	axial_rot_r	elbow_flexion_r	pro_sup_r	wrist_flex_r	wrist_dev_r	clav_prot_l	clav_elev_l	scapula_abduction_l	scapula_elevation_l	scapula_upward_rot_l	scapula_winging_l	shoulder_elv_l	plane_of_elev_l	axial_rot_l	elbow_flexion_l	pro_sup_l	wrist_flex_l	wrist_dev_l	
7.7300	-42.682113	-7.501552	4.744590	-67.418001	786.882501	-1.534876	6.540011	-45.000000	45.000000	-45.000000	-14.014145	-2606.850860	-1912.803839	147.593126	-147.810160	1808.582559	24.832069	16.926329	14.806775	16.064420	44.051005	-45.000000	-42.976181	-19.892289	438.140441	-2809.640520	31.618005	35.260878	-361.577711	46.121411	11.728079	-18.966591	
7.7400	-42.757870	-7.541495	4.675521	-67.108984	787.128734	-1.419148	6.563449	-45.000000	45.000000	-45.000000	-14.176569	-2606.767295	-1912.747816	147.553151	-148.145728	1808.569350	25.077263	17.024750	14.846358	16.018274	44.085612	-45.000000	-42.997729	-19.699059	438.201617	-2809.807020	31.560876	34.550116	-361.567700	45.775755	11.662709	-18.920368	
7.7500	-42.820272	-7.601994	4.640772	-66.873688	787.390293	-1.310185	6.566044	-45.000000	45.000000	-45.000000	-14.317132	-2606.685542	-1912.699942	147.547776	-148.394244	1808.566226	25.290903	17.149959	14.858663	15.971765	44.092279	-45.000000	-42.999026	-19.513459	438.271789	-2809.979120	31.503199	33.872945	-361.564085	45.446237	11.551112	-18.875402	
7.7600	-42.881441	-7.613826	4.558799	-66.798059	787.692650	-1.210225	6.565308	-45.000000	45.000000	-45.000000	-14.386149	-2606.638225	-1912.632956	147.533333	-148.403790	1808.612801	25.485467	17.244107	14.846239	15.906835	44.123829	-45.000000	-43.006442	-19.287026	438.347309	-2810.122949	31.455567	33.282380	-361.559557	45.174488	11.506284	-18.860636	
7.7700	-42.939014	-7.600995	4.459737	-66.891469	788.030702	-1.126978	6.556409	-45.000000	45.000000	-45.000000	-14.405933	-2606.628775	-1912.554315	147.514835	-148.200976	1808.700068	25.635832	17.325989	14.805029	15.828338	44.155238	-45.000000	-43.016876	-19.055527	438.433430	-2810.244129	31.418894	32.761187	-361.549950	44.947755	11.489006	-18.873013	
7.7800	-42.991977	-7.578632	4.363599	-67.175368	788.403265	-1.068266	6.535476	-45.000000	45.000000	-45.000000	-14.377159	-2606.656298	-1912.465804	147.513997	-147.802859	1808.825196	25.725549	17.400306	14.730889	15.744097	44.189026	-45.000000	-43.028389	-18.833096	438.536959	-2810.344497	31.385803	32.308137	-361.535779	44.757147	11.489154	-18.913742	
7.7900	-43.046410	-7.545014	4.268747	-67.651566	788.802749	-1.042237	6.510076	-45.000000	45.000000	-45.000000	-14.327981	-2606.729112	-1912.371298	147.504101	-147.260759	1808.976401	25.745366	17.466027	14.634522	15.659345	44.212488	-45.000000	-43.052428	-18.647457	438.655442	-2810.421167	31.363502	31.903342	-361.503218	44.581975	11.502010	-18.983790	
7.8000	-43.105708	-7.525431	4.204605	-68.315598	789.221352	-1.055060	6.475775	-45.000000	45.000000	-45.000000	-14.269198	-2606.831006	-1912.279244	147.521515	-146.652278	1809.140551	25.688950	17.533009	14.516270	15.585505	44.243180	-45.000000	-43.094193	-18.522250	438.789542	-2810.485365	31.338989	31.533292	-361.451207	44.395181	11.507696	-19.078616	
7.8100	-43.177730	-7.501120	4.146263	-69.166643	789.655948	-1.109466	6.445288	-45.000000	45.000000	-45.000000	-14.225251	-2606.969389	-1912.188569	147.520423	-146.024327	1809.308445	25.566586	17.592430	14.392205	15.529841	44.263948	-44.999999	-43.166413	-18.465946	438.930954	-2810.528259	31.322841	31.182949	-361.369724	44.175622	11.518864	-19.197527	
7.8200	-43.271251	-7.493232	4.115146	-70.208493	790.108346	-1.204352	6.413273	-45.000000	45.000000	-45.000000	-14.197494	-2607.119397	-1912.111544	147.546983	-145.421285	1809.475784	25.384655	17.651226	14.258814	15.496562	44.310831	-44.999998	-43.282510	-18.494991	439.072628	-2810.561406	31.299533	30.849205	-361.255793	43.901686	11.524516	-19.335514	
7.8300	-43.384229	-7.488580	4.094853	-71.448032	790.584697	-1.335753	6.389869	-45.000000	44.999999	-45.000000	-14.209194	-2607.293768	-1912.041501	147.559153	-144.852072	1809.640538	25.155225	17.706328	14.126209	15.490530	44.347828	-44.999997	-43.437802	-18.606358	439.212540	-2810.577164	31.278417	30.518633	-361.105604	43.559800	11.530807	-19.490058	
7.8400	-43.515780	-7.505147	4.106562	-72.894273	791.094338	-1.497843	6.370854	-45.000000	44.999999	-45.000000	-14.254167	-2607.478430	-1911.973994	147.597705	-144.326497	1809.806450	24.882517	17.762588	13.986448	15.505482	44.414054	-44.999995	-43.636927	-18.814593	439.345561	-2810.586403	31.246441	30.179873	-360.918405	43.140567	11.532050	-19.658009	
7.8500	-43.652546	-7.530405	4.139585	-74.556617	791.647976	-1.684470	6.366811	-45.000000	44.999998	-45.000000	-14.348642	-2607.692747	-1911.889831	147.620482	-143.835019	1809.974528	24.571244	17.817775	13.844405	15.551076	44.485081	-44.999991	-43.863596	-19.120527	439.469133	-2810.578106	31.213982	29.809605	-360.695898	42.640122	11.530343	-19.834183	
7.8600	-43.791891	-7.575342	4.207912	-76.443629	792.256133	-1.889916	6.371814	-45.000000	44.999997	-45.000000	-14.478651	-2607.927001	-1911.785802	147.660375	-143.378187	1810.146550	24.223672	17.874804	13.693382	15.616646	44.597087	-44.999984	-44.115394	-19.525800	439.584144	-2810.561988	31.171094	29.389769	-360.435378	42.061003	11.521846	-20.018433	
